<svg xmlns="http://www.w3.org/2000/svg" width="107.561" height="136.809" viewBox="0 0 107.561 136.809">
  <g id="_13_idea" data-name="13 idea" transform="translate(0)">
    <path id="Path_10418" data-name="Path 10418" d="M250.463,13.1a2.019,2.019,0,0,0,2.019-2.019V2.019a2.019,2.019,0,0,0-4.038,0v9.062A2.019,2.019,0,0,0,250.463,13.1Z" transform="translate(-196.682)" fill="#41823e"/>
    <path id="Path_10419" data-name="Path 10419" d="M368.437,57.33l-6.408,6.408a2.019,2.019,0,1,0,2.856,2.855l6.408-6.408a2.019,2.019,0,0,0-2.856-2.855Z" transform="translate(-279.484 -41.578)" fill="#41823e"/>
    <path id="Path_10420" data-name="Path 10420" d="M118.465,307.3l-6.408,6.408a2.019,2.019,0,0,0,2.855,2.855l6.408-6.408a2.019,2.019,0,1,0-2.855-2.855Z" transform="translate(-96.305 -224.756)" fill="#41823e"/>
    <path id="Path_10421" data-name="Path 10421" d="M118.465,66.592a2.019,2.019,0,1,0,2.855-2.855l-6.408-6.408a2.019,2.019,0,0,0-2.855,2.855Z" transform="translate(-96.305 -41.577)" fill="#41823e"/>
    <path id="Path_10422" data-name="Path 10422" d="M364.886,307.3a2.019,2.019,0,0,0-2.856,2.855l6.408,6.408a2.019,2.019,0,1,0,2.856-2.855Z" transform="translate(-279.484 -224.756)" fill="#41823e"/>
    <path id="Path_10423" data-name="Path 10423" d="M65.81,193.714H56.747a2.019,2.019,0,1,0,0,4.038h9.062a2.019,2.019,0,0,0,0-4.038Z" transform="translate(-54.728 -141.953)" fill="#41823e"/>
    <path id="Path_10424" data-name="Path 10424" d="M419.324,193.714h-9.062a2.019,2.019,0,0,0,0,4.038h9.062a2.019,2.019,0,1,0,0-4.038Z" transform="translate(-313.782 -141.953)" fill="#41823e"/>
    <path id="Path_10425" data-name="Path 10425" d="M171.461,261.52a2.019,2.019,0,1,0,0-4.038h-.729v-6.824l.038-.23a28.617,28.617,0,0,1,2.2-7.17,2.019,2.019,0,1,0-3.673-1.678,32.724,32.724,0,0,0-2.263,6.891H143.362a32.719,32.719,0,0,0-10.1-17.746,32.825,32.825,0,0,1-10.753-20.906,2.019,2.019,0,1,0-4.014.437,36.858,36.858,0,0,0,12.071,23.475,28.722,28.722,0,0,1,9.042,16.624l.05.3v6.824H139a2.019,2.019,0,1,0,0,4.038h.662v4.973H139a2.019,2.019,0,1,0,0,4.038h.662v3.462A5.554,5.554,0,0,0,143.3,279.2a11.853,11.853,0,0,0,6.594,9.834,2.019,2.019,0,1,0,1.8-3.617,7.838,7.838,0,0,1-4.291-5.873h15.586a7.838,7.838,0,0,1-4.291,5.873,2.019,2.019,0,1,0,1.8,3.616,11.853,11.853,0,0,0,6.594-9.834,5.553,5.553,0,0,0,3.643-5.2v-3.462h.729a2.019,2.019,0,1,0,0-4.038h-.729V261.52ZM143.7,252.509h23v4.973h-23Zm23,21.485a1.513,1.513,0,0,1-1.511,1.511H145.209a1.513,1.513,0,0,1-1.511-1.511v-3.462h23Zm0-7.5h-23V261.52h23Z" transform="translate(-101.449 -152.435)" fill="#41823e"/>
    <path id="Path_10426" data-name="Path 10426" d="M227.6,183.226a10.356,10.356,0,1,0-10.356-10.356A10.368,10.368,0,0,0,227.6,183.226Zm0-16.675a6.318,6.318,0,1,1-6.318,6.318A6.325,6.325,0,0,1,227.6,166.551Z" transform="translate(-173.818 -119.089)" fill="#41823e"/>
    <path id="Path_10427" data-name="Path 10427" d="M163.5,124.725a3.369,3.369,0,0,0-3.365,3.365v5.864a3.369,3.369,0,0,0,3.365,3.365h4.03a19.186,19.186,0,0,0,.885,2.133l-2.851,2.851a3.369,3.369,0,0,0,0,4.759l4.146,4.146a3.369,3.369,0,0,0,4.759,0l2.851-2.85a19.2,19.2,0,0,0,2.133.885v4.03a3.369,3.369,0,0,0,3.365,3.365h5.863a3.369,3.369,0,0,0,3.365-3.365v-4.03a19.2,19.2,0,0,0,2.133-.885l2.851,2.85a3.365,3.365,0,0,0,4.759,0l4.146-4.146a3.37,3.37,0,0,0,0-4.759l-2.851-2.851a19.08,19.08,0,0,0,.885-2.133H208a3.369,3.369,0,0,0,3.365-3.365V128.09A3.369,3.369,0,0,0,208,124.725h-4.03a19.169,19.169,0,0,0-.885-2.133l2.851-2.851a3.37,3.37,0,0,0,0-4.759l-4.146-4.146a3.365,3.365,0,0,0-4.759,0l-2.851,2.851a19.1,19.1,0,0,0-2.133-.885v-4.03a3.369,3.369,0,0,0-3.365-3.365h-5.863a3.369,3.369,0,0,0-3.365,3.365v4.03a19.1,19.1,0,0,0-2.133.885l-2.851-2.851a3.369,3.369,0,0,0-4.759,0l-4.146,4.146a3.369,3.369,0,0,0,0,4.759l2.851,2.851a19.2,19.2,0,0,0-.885,2.133H163.5Zm8.832-3.927-3.437-3.437,3.194-3.194,3.437,3.437a2.019,2.019,0,0,0,2.459.308,15.131,15.131,0,0,1,3.986-1.654,2.019,2.019,0,0,0,1.52-1.956v-4.858h4.517V114.3a2.019,2.019,0,0,0,1.52,1.956,15.124,15.124,0,0,1,3.987,1.654,2.019,2.019,0,0,0,2.459-.308l3.437-3.437,3.194,3.194-3.437,3.437a2.019,2.019,0,0,0-.308,2.459,15.125,15.125,0,0,1,1.653,3.986,2.02,2.02,0,0,0,1.957,1.52h4.858v4.517h-4.858a2.02,2.02,0,0,0-1.957,1.52,15.123,15.123,0,0,1-1.653,3.986,2.019,2.019,0,0,0,.308,2.459l3.437,3.437-3.194,3.194-3.437-3.436a2.018,2.018,0,0,0-2.459-.308,15.138,15.138,0,0,1-3.987,1.653,2.019,2.019,0,0,0-1.52,1.956V152.6h-4.517v-4.857a2.019,2.019,0,0,0-1.52-1.956,15.153,15.153,0,0,1-3.986-1.653,2.019,2.019,0,0,0-2.459.308l-3.437,3.436-3.194-3.194,3.437-3.437a2.019,2.019,0,0,0,.309-2.459,15.138,15.138,0,0,1-1.654-3.986,2.019,2.019,0,0,0-1.956-1.52h-4.858v-4.517h4.858a2.019,2.019,0,0,0,1.956-1.52,15.136,15.136,0,0,1,1.654-3.986,2.019,2.019,0,0,0-.308-2.459Z" transform="translate(-131.971 -77.242)" fill="#41823e"/>
    <path id="Path_10428" data-name="Path 10428" d="M181.718,73.96a37.04,37.04,0,0,0-62.935,21.316,2.019,2.019,0,1,0,4,.517,32.911,32.911,0,1,1,54.785,28.5,34.755,34.755,0,0,0-2.981,3.068,2.019,2.019,0,1,0,3.064,2.63,30.735,30.735,0,0,1,2.634-2.71,36.948,36.948,0,0,0,1.428-53.315Z" transform="translate(-101.655 -46.154)" fill="#41823e"/>
  </g>
</svg>
