<svg id="Group_5996" data-name="Group 5996" xmlns="http://www.w3.org/2000/svg" width="127.181" height="127.297" viewBox="0 0 127.181 127.297">
  <g id="Group_5819" data-name="Group 5819" transform="translate(0 38.264)">
    <g id="Group_5818" data-name="Group 5818">
      <path id="Path_10383" data-name="Path 10383" d="M31.444,153.9A31.247,31.247,0,0,0,.233,185.113c0,10.685,5.083,22.174,15.108,34.147,1.49,1.779,2.974,3.427,4.4,4.931-6.473,1.767-10.359,4.941-10.359,8.646,0,6.559,11.368,10.1,22.063,10.1s22.063-3.539,22.063-10.1c0-3.7-3.885-6.877-10.354-8.644a101.629,101.629,0,0,0,8-9.518,1.867,1.867,0,1,0-3.005-2.215,100.226,100.226,0,0,1-9.642,11.14,1.866,1.866,0,0,0-.814.808c-2.7,2.649-4.963,4.614-6.25,5.687-1.273-1.063-3.506-3-6.167-5.616a1.867,1.867,0,0,0-.936-.93c-8.455-8.5-20.377-23.2-20.377-38.436a27.478,27.478,0,0,1,54.956,0c0,6.617-2.255,13.762-6.7,21.238a1.867,1.867,0,1,0,3.209,1.908c4.795-8.062,7.226-15.849,7.226-23.147A31.247,31.247,0,0,0,31.444,153.9ZM30.3,233.977a1.867,1.867,0,0,0,2.285,0,94.88,94.88,0,0,0,7.506-6.675c6.3,1.284,9.681,3.756,9.681,5.535,0,1.329-1.821,2.9-4.754,4.091A37.214,37.214,0,0,1,31.444,239.2c-11.19,0-18.33-3.77-18.33-6.364,0-1.782,3.386-4.253,9.686-5.537A94.869,94.869,0,0,0,30.3,233.977Z" transform="translate(-0.233 -153.902)" fill="#41823e"/>
    </g>
  </g>
  <g id="Group_5821" data-name="Group 5821" transform="translate(17.641 55.905)">
    <g id="Group_5820" data-name="Group 5820">
      <path id="Path_10384" data-name="Path 10384" d="M84.757,224.854a13.459,13.459,0,0,0-8.119,2.7,1.867,1.867,0,0,0,2.235,2.99,9.811,9.811,0,1,1-3.574,5.165,1.867,1.867,0,1,0-3.588-1.03,13.572,13.572,0,1,0,13.045-9.821Z" transform="translate(-71.187 -224.854)" fill="#41823e"/>
    </g>
  </g>
  <g id="Group_5823" data-name="Group 5823" transform="translate(78.341 0)">
    <g id="Group_5822" data-name="Group 5822">
      <path id="Path_10385" data-name="Path 10385" d="M349.546,54.231c.95-1.019,1.928-2.117,2.909-3.289,7.772-9.282,11.712-18.205,11.712-26.522a24.424,24.424,0,0,0-46.92-9.506,1.867,1.867,0,0,0,3.438,1.454,20.691,20.691,0,0,1,39.749,8.052c0,15.426-16.2,30.2-20.688,34.006-.99-.837-2.548-2.206-4.376-4a1.864,1.864,0,0,0-.83-.825C328.1,47.115,319.06,35.96,319.06,24.42a1.867,1.867,0,1,0-3.733,0c0,8.317,3.94,17.24,11.712,26.522.981,1.171,1.958,2.269,2.908,3.288-4.812,1.446-7.59,3.907-7.59,6.87,0,2.5,2.027,4.7,5.709,6.2a35.264,35.264,0,0,0,23.362,0c3.681-1.5,5.708-3.7,5.708-6.2C357.136,58.142,354.356,55.678,349.546,54.231Zm-9.8,11.328c-8.836,0-13.656-2.946-13.656-4.459,0-.986,2.193-2.791,6.875-3.786a72.934,72.934,0,0,0,5.64,5,1.867,1.867,0,0,0,2.285,0,72.837,72.837,0,0,0,5.639-5,17.11,17.11,0,0,1,5.158,1.866c1.075.655,1.716,1.372,1.716,1.919C353.4,62.613,348.582,65.559,339.747,65.559Z" transform="translate(-315.327 0)" fill="#41823e"/>
    </g>
  </g>
  <g id="Group_5825" data-name="Group 5825" transform="translate(91.899 13.558)">
    <g id="Group_5824" data-name="Group 5824">
      <path id="Path_10386" data-name="Path 10386" d="M380.721,54.532a10.862,10.862,0,1,0,10.862,10.862A10.874,10.874,0,0,0,380.721,54.532Zm0,17.991a7.129,7.129,0,1,1,7.129-7.129A7.137,7.137,0,0,1,380.721,72.523Z" transform="translate(-369.859 -54.532)" fill="#41823e"/>
    </g>
  </g>
  <g id="Group_5827" data-name="Group 5827" transform="translate(74.22 59.233)">
    <g id="Group_5826" data-name="Group 5826">
      <path id="Path_10387" data-name="Path 10387" d="M303.08,238.239h-.852a14.085,14.085,0,0,0-1.854.122,1.867,1.867,0,1,0,.493,3.7,10.38,10.38,0,0,1,1.362-.089h.852a1.867,1.867,0,0,0,0-3.734Z" transform="translate(-298.753 -238.239)" fill="#41823e"/>
    </g>
  </g>
  <g id="Group_5829" data-name="Group 5829" transform="translate(68.044 115.238)">
    <g id="Group_5828" data-name="Group 5828">
      <path id="Path_10388" data-name="Path 10388" d="M278.243,463.5h-.009l-2.465.011a1.867,1.867,0,0,0,.008,3.733h.009l2.465-.011a1.867,1.867,0,0,0-.008-3.733Z" transform="translate(-273.911 -463.496)" fill="#41823e"/>
    </g>
  </g>
  <g id="Group_5831" data-name="Group 5831" transform="translate(76.43 83.412)">
    <g id="Group_5830" data-name="Group 5830">
      <path id="Path_10389" data-name="Path 10389" d="M311.974,335.489h-2.465a1.867,1.867,0,0,0,0,3.733h2.465a1.867,1.867,0,0,0,0-3.733Z" transform="translate(-307.642 -335.489)" fill="#41823e"/>
    </g>
  </g>
  <g id="Group_5833" data-name="Group 5833" transform="translate(66.002 62.435)">
    <g id="Group_5832" data-name="Group 5832">
      <path id="Path_10390" data-name="Path 10390" d="M270.567,251.721a1.867,1.867,0,0,0-2.638-.106,14.032,14.032,0,0,0-1.881,2.126,1.867,1.867,0,1,0,3.033,2.178,10.319,10.319,0,0,1,1.38-1.56A1.867,1.867,0,0,0,270.567,251.721Z" transform="translate(-265.698 -251.12)" fill="#41823e"/>
    </g>
  </g>
  <g id="Group_5835" data-name="Group 5835" transform="translate(77.906 115.193)">
    <g id="Group_5834" data-name="Group 5834">
      <path id="Path_10391" data-name="Path 10391" d="M317.91,463.314H317.9l-2.465.011a1.867,1.867,0,0,0,.008,3.733h.009l2.465-.011a1.867,1.867,0,0,0-.008-3.733Z" transform="translate(-313.578 -463.314)" fill="#41823e"/>
    </g>
  </g>
  <g id="Group_5837" data-name="Group 5837" transform="translate(58.182 115.282)">
    <g id="Group_5836" data-name="Group 5836">
      <path id="Path_10392" data-name="Path 10392" d="M238.578,463.675h-.009l-2.465.011a1.867,1.867,0,0,0,.008,3.733h.009l2.465-.011a1.867,1.867,0,0,0-.008-3.733Z" transform="translate(-234.246 -463.675)" fill="#41823e"/>
    </g>
  </g>
  <g id="Group_5839" data-name="Group 5839" transform="translate(67.45 80.038)">
    <g id="Group_5838" data-name="Group 5838">
      <path id="Path_10393" data-name="Path 10393" d="M276.323,323.724a10.3,10.3,0,0,1-1.639-1.284,1.867,1.867,0,1,0-2.588,2.69,14.031,14.031,0,0,0,2.235,1.751,1.867,1.867,0,1,0,1.992-3.158Z" transform="translate(-271.523 -321.919)" fill="#41823e"/>
    </g>
  </g>
  <g id="Group_5841" data-name="Group 5841" transform="translate(63.739 71.197)">
    <g id="Group_5840" data-name="Group 5840">
      <path id="Path_10394" data-name="Path 10394" d="M260.519,290.321a10.316,10.316,0,0,1-.189-1.968v-.1a1.866,1.866,0,0,0-1.845-1.888h-.022a1.867,1.867,0,0,0-1.866,1.845v.147a14.056,14.056,0,0,0,.258,2.682,1.867,1.867,0,0,0,3.665-.714Z" transform="translate(-256.597 -286.361)" fill="#41823e"/>
    </g>
  </g>
  <g id="Group_5843" data-name="Group 5843" transform="translate(86.293 83.412)">
    <g id="Group_5842" data-name="Group 5842">
      <path id="Path_10395" data-name="Path 10395" d="M351.641,335.489h-2.465a1.867,1.867,0,0,0,0,3.733h2.465a1.867,1.867,0,0,0,0-3.733Z" transform="translate(-347.309 -335.489)" fill="#41823e"/>
    </g>
  </g>
  <g id="Group_5845" data-name="Group 5845" transform="translate(115.526 85.44)">
    <g id="Group_5844" data-name="Group 5844">
      <path id="Path_10396" data-name="Path 10396" d="M469.957,345.417a17.777,17.777,0,0,0-2.285-1.532,1.867,1.867,0,1,0-1.832,3.253,14.078,14.078,0,0,1,1.8,1.21,1.867,1.867,0,0,0,2.314-2.93Z" transform="translate(-464.888 -343.645)" fill="#41823e"/>
    </g>
  </g>
  <g id="Group_5847" data-name="Group 5847" transform="translate(107.492 114.919)">
    <g id="Group_5846" data-name="Group 5846">
      <path id="Path_10397" data-name="Path 10397" d="M438.748,463.823a1.868,1.868,0,0,0-2.1-1.594,14.049,14.049,0,0,1-1.862.132l-.349,0a1.867,1.867,0,0,0,.009,3.733h.009l.349,0a17.819,17.819,0,0,0,2.355-.167A1.867,1.867,0,0,0,438.748,463.823Z" transform="translate(-432.575 -462.211)" fill="#41823e"/>
    </g>
  </g>
  <g id="Group_5849" data-name="Group 5849" transform="translate(116.777 110.702)">
    <g id="Group_5848" data-name="Group 5848">
      <path id="Path_10398" data-name="Path 10398" d="M475.045,445.83a1.866,1.866,0,0,0-2.639-.064,14.1,14.1,0,0,1-1.685,1.373,1.867,1.867,0,1,0,2.127,3.069,17.855,17.855,0,0,0,2.133-1.738A1.867,1.867,0,0,0,475.045,445.83Z" transform="translate(-469.918 -445.25)" fill="#41823e"/>
    </g>
  </g>
  <g id="Group_5851" data-name="Group 5851" transform="translate(122.681 102.183)">
    <g id="Group_5850" data-name="Group 5850">
      <path id="Path_10399" data-name="Path 10399" d="M496.523,411.02a1.867,1.867,0,0,0-2.18,1.489,13.98,13.98,0,0,1-.567,2.1,1.867,1.867,0,1,0,3.517,1.254,17.7,17.7,0,0,0,.719-2.658A1.867,1.867,0,0,0,496.523,411.02Z" transform="translate(-493.667 -410.987)" fill="#41823e"/>
    </g>
  </g>
  <g id="Group_5853" data-name="Group 5853" transform="translate(122.121 92.555)">
    <g id="Group_5852" data-name="Group 5852">
      <path id="Path_10400" data-name="Path 10400" d="M495.937,375.924a17.623,17.623,0,0,0-.966-2.582,1.867,1.867,0,1,0-3.383,1.579,13.87,13.87,0,0,1,.761,2.033,1.867,1.867,0,1,0,3.588-1.03Z" transform="translate(-491.412 -372.265)" fill="#41823e"/>
    </g>
  </g>
  <g id="Group_5855" data-name="Group 5855" transform="translate(96.155 83.412)">
    <g id="Group_5854" data-name="Group 5854">
      <path id="Path_10401" data-name="Path 10401" d="M391.307,335.489h-2.465a1.867,1.867,0,1,0,0,3.733h2.465a1.867,1.867,0,1,0,0-3.733Z" transform="translate(-386.975 -335.489)" fill="#41823e"/>
    </g>
  </g>
  <g id="Group_5857" data-name="Group 5857" transform="translate(87.768 115.148)">
    <g id="Group_5856" data-name="Group 5856">
      <path id="Path_10402" data-name="Path 10402" d="M357.575,463.134h-.009l-2.465.011a1.867,1.867,0,0,0,.008,3.733h.009l2.465-.011a1.867,1.867,0,0,0-.008-3.733Z" transform="translate(-353.243 -463.134)" fill="#41823e"/>
    </g>
  </g>
  <g id="Group_5859" data-name="Group 5859" transform="translate(106.017 83.412)">
    <g id="Group_5858" data-name="Group 5858">
      <path id="Path_10403" data-name="Path 10403" d="M431.054,335.508c-.264-.012-.532-.018-.795-.018h-1.753a1.867,1.867,0,0,0,0,3.733h1.753q.317,0,.63.014l.084,0a1.867,1.867,0,0,0,.081-3.731Z" transform="translate(-426.64 -335.49)" fill="#41823e"/>
    </g>
  </g>
  <g id="Group_5861" data-name="Group 5861" transform="translate(97.63 115.103)">
    <g id="Group_5860" data-name="Group 5860">
      <path id="Path_10404" data-name="Path 10404" d="M397.24,462.955h-.009l-2.465.011a1.867,1.867,0,0,0,.008,3.733h.009l2.465-.011a1.867,1.867,0,0,0-.008-3.733Z" transform="translate(-392.908 -462.955)" fill="#41823e"/>
    </g>
  </g>
</svg>
