<svg xmlns="http://www.w3.org/2000/svg" viewBox="0 0 1080 670"><defs><style>.cls-1{fill:#41823e;}.cls-2,.cls-3{fill:none;stroke:#41823e;stroke-linecap:round;stroke-linejoin:round;}.cls-2{stroke-width:10px;}.cls-3{stroke-width:5px;}</style></defs><g id="Layer_3" data-name="Layer 3"><path class="cls-1" d="M77.86,343.21v11.93C81.8,350.25,81.8,350.25,77.86,343.21Z"/><path class="cls-1" d="M802.29,26.35,881.12,280.1H510.4L431.57,26.35H802.29m7.37-10H418L503,290.1H894.7l-85-273.75Z"/><path class="cls-1" d="M586.54,289.88,560,385.74H537.1l26.57-95.86h22.87m13.15-10H556.06L524,395.74h43.63l32.11-115.86Z"/><path class="cls-1" d="M684.37,396.65,760.59,647H362.68L286.47,396.65h397.9m7.41-10H273L355.27,657H774.08l-82.3-270.35Z"/><polygon class="cls-1" points="900.73 603.61 967.63 603.61 858.88 311.69 791.99 311.69 900.73 603.61"/><rect class="cls-1" x="905.5" y="564.99" width="174.5" height="38.62" rx="14.62"/><line class="cls-2" x1="488.81" y1="38.63" x2="566" y2="264.94"/><line class="cls-2" x1="531.87" y1="38.63" x2="609.06" y2="264.94"/><line class="cls-2" x1="574.94" y1="38.63" x2="652.13" y2="264.94"/><line class="cls-2" x1="618" y1="38.63" x2="695.19" y2="264.94"/><line class="cls-2" x1="661.06" y1="38.63" x2="738.25" y2="264.94"/><line class="cls-2" x1="704.13" y1="38.63" x2="781.32" y2="264.94"/><line class="cls-2" x1="747.19" y1="38.63" x2="824.38" y2="264.94"/><line class="cls-2" x1="786.35" y1="55.28" x2="461.01" y2="55.28"/><line class="cls-2" x1="795.75" y1="82.85" x2="470.42" y2="82.85"/><line class="cls-2" x1="805.15" y1="110.43" x2="479.82" y2="110.43"/><line class="cls-2" x1="814.56" y1="138" x2="489.23" y2="138"/><line class="cls-2" x1="823.96" y1="165.57" x2="498.63" y2="165.57"/><line class="cls-2" x1="833.37" y1="193.14" x2="508.04" y2="193.14"/><line class="cls-2" x1="842.77" y1="220.72" x2="517.44" y2="220.72"/><line class="cls-2" x1="852.18" y1="248.29" x2="526.84" y2="248.29"/><line class="cls-2" x1="370.71" y1="408.67" x2="441.01" y2="634.98"/><line class="cls-2" x1="409.93" y1="408.67" x2="480.24" y2="634.98"/><line class="cls-2" x1="449.16" y1="408.67" x2="519.46" y2="634.98"/><line class="cls-2" x1="488.38" y1="408.67" x2="558.68" y2="634.98"/><line class="cls-2" x1="527.6" y1="408.67" x2="597.9" y2="634.98"/><line class="cls-2" x1="566.82" y1="408.67" x2="637.12" y2="634.98"/><line class="cls-2" x1="606.04" y1="408.67" x2="676.34" y2="634.98"/><line class="cls-2" x1="641.7" y1="425.32" x2="345.4" y2="425.32"/><line class="cls-2" x1="650.27" y1="452.89" x2="353.96" y2="452.89"/><line class="cls-2" x1="658.83" y1="480.47" x2="362.53" y2="480.47"/><line class="cls-2" x1="667.4" y1="508.04" x2="371.09" y2="508.04"/><line class="cls-2" x1="675.96" y1="535.61" x2="379.66" y2="535.61"/><line class="cls-2" x1="684.53" y1="563.19" x2="388.22" y2="563.19"/><line class="cls-2" x1="693.09" y1="590.76" x2="396.79" y2="590.76"/><line class="cls-2" x1="701.66" y1="618.33" x2="405.35" y2="618.33"/><path class="cls-1" d="M274.88,135.21c5.86,0,11.11,3.16,14.8,8.9,17.55,27.29,34.47,55.08,50.82,82,11.68,19.2,24.29,32.09,39.66,40.55,18.22,10,36.35,21.67,53.88,32.93l2.91,1.87c4,2.57,7.72,3.83,11.32,3.83l.72,0a9.89,9.89,0,0,0,1.64,2.25c10.37,10.69,15.08,21.28,13.25,29.82-2.05,9.59-11.79,15.69-20.17,19.24-4.49-4.45-11.76-7.75-21.81-12.32-.3-.13-.6-.25-.9-.35a10,10,0,0,0-3.61-3.77c-4.68-2.83-9.39-5.83-13.94-8.73-10.28-6.55-20.9-13.32-32.07-18.62-25.3-12-45.68-32.08-62.32-61.37-9.84-17.34-20.33-34.51-30.46-51.11-5.7-9.34-11.6-19-17.29-28.54-10.48-17.57-5.77-25.43.87-31.31a19.25,19.25,0,0,1,12.7-5.22h0m0-10a29.18,29.18,0,0,0-19.32,7.73c-12.77,11.29-13.81,25.53-2.84,43.92,15.83,26.54,32.35,52.53,47.65,79.47,16.85,29.67,38.23,51.95,66.73,65.46,15.43,7.33,29.84,17.66,45.12,26.88-3.12,7.92-6.22,14.95-8.75,22.08H411c2.21-5.72,4.44-11.45,6.75-17.41,16.85,7.65,21.37,9.72,21.41,17.41H446v-4.31c32.79-13.07,37.57-39.39,11.84-65.91,1.19-1.92,2.09-4.42,3.7-5.82a122.07,122.07,0,0,1,11.9-9.15H456.05L455,288.34c-1.78,4.66-3.83,6.92-6.7,6.92-1.67,0-3.6-.76-5.92-2.25C423.42,280.86,404.5,268.6,385,257.87c-15.28-8.41-26.39-21.29-35.94-37-16.77-27.57-33.56-55.15-51-82.18-5.78-9-14.37-13.49-23.21-13.49ZM473.41,285.56Z"/><path class="cls-1" d="M274.13,91v10a32,32,0,0,1,24.36,10.62,42.38,42.38,0,0,1,5.4,7.32c-9.17-10.69-20.83-16.5-33.45-16.5-8.95,0-18,3-26.14,8.82-21,14.83-26.61,41.48-13.76,64.83,6.37,11.57,13,22.56,20.07,34.2,1.41,2.33,2.85,4.7,4.29,7.09-22.25,14.69-41.35,35.35-59.54,64.23a10,10,0,0,0,.07,10.76c3.42,5.28,6.82,10.73,10.11,16,7.49,12,15.24,24.45,23.86,35.91,13.33,17.73,20.12,39,22,69.1,3.38,53.58,7.56,108,11.61,160.54l1.34,17.5c1.07,14-2.77,27.12-10.28,35.22-3.22,3.48-8.62,7.63-16.05,7.63a22.71,22.71,0,0,1-8.6-1.79c-9.95-4.07-16.06-13.19-18.68-27.88-3.95-22.14-7.88-44.67-11.69-66.47-5.39-30.83-11-62.72-16.66-94a57.61,57.61,0,0,0-9.61-22.13c-2.21-3.14-2.53-4.63-1.72-8,3.81-15.78,8.52-36.72,11.12-58.82a10,10,0,0,0-7.67-10.91,10.4,10.4,0,0,0-2.27-.26,10,10,0,0,0-9.42,6.69c-2.23,6.31-4.56,12.73-6.81,18.94-5,13.69-10.1,27.85-14.56,42.15-17.42,55.79-41,109.55-63.79,161.55-6,13.74-12.26,28-18.29,42-3.1,7.22-8.85,15.83-18.63,15.83a23.91,23.91,0,0,1-11-3.07,35.52,35.52,0,0,1-16.39-18.64,40.89,40.89,0,0,1-1-26.59c16.13-53.75,32.57-108.38,48.47-161.22l9.05-30.1Q73.41,379.74,77,368c5.5-18.12,11.19-36.87,16.56-55.42a85.72,85.72,0,0,0,2.36-12.32,73.37,73.37,0,0,1,1.71-9.34c1.07-3.8,2.08-7.67,3.07-11.42,3.08-11.77,6-22.88,10.64-32.66,16.16-34,36.58-63.21,60.68-86.83a262.62,262.62,0,0,1,83.11-54.84,49.59,49.59,0,0,1,19-4.18V91m0,0a59.54,59.54,0,0,0-22.87,5C186.2,123.08,136,171.68,102.3,242.52c-6.66,14-10,30.25-14.31,45.66-2,7-2,14.66-4,21.59C76.3,336.15,68.2,362.35,60.3,388.63Q31.52,484.29,2.77,580c-6.78,22.62,2.71,46.69,22.32,57a33.84,33.84,0,0,0,15.67,4.21c11.49,0,21.57-7.33,27.82-21.89C97.5,551.88,128.81,485.84,151,414.73c6.42-20.54,14.14-40.52,21.26-60.75-2.32,19.75-6.35,38.78-10.91,57.62-1.58,6.5-.39,10.87,3.25,16.06a47.76,47.76,0,0,1,8,18.18c9.72,53.42,18.81,107,28.35,160.47,3,16.6,10.43,29.54,24.74,35.39A32.63,32.63,0,0,0,238,644.23c21.51,0,38.62-23.32,36.3-53.61-4.55-59.28-9.19-118.56-12.94-177.91-1.77-27.92-7.78-52.89-24-74.48-12.08-16.08-22.36-34-33.56-51.33,17.61-28,37.91-50.9,64.72-66.22-10.16-17.11-20.16-32.94-29.25-49.46-10.44-19-5.71-40.17,10.77-51.83,6.63-4.69,13.58-7,20.37-7,11.09,0,21.73,6.15,29.68,18.08,7.15,10.74,13.78,22,21.82,34.87C325.49,120,304.66,91,274.13,91Z"/><path class="cls-1" d="M374.25,5.07v10h0a45.19,45.19,0,0,1,14.13,2.38c21.07,6.93,27.84,25.39,29.82,39.65,1.61,11.67.11,24.59-1.71,37.92-.16,1.19-.32,2.26-.46,3.22s-.25,1.76-.35,2.57l-27.3-26.95L341.88,28c11.14-8.65,21.8-12.88,32.36-12.89v-10m0,0c-16.87,0-32.28,8.44-47.09,22.39l98.71,97.46c2.29-3.2,3.86-5.41,5.75-8.07-7.87-9-6.8-8.85-5.21-20.48,1.82-13.36,3.52-27.51,1.7-40.64C424.76,31.56,411.92,14.66,391.5,8a55,55,0,0,0-17.26-2.88Z"/><path class="cls-1" d="M327.32,58.13l56.49,55.78,9.27,9.16a36.28,36.28,0,0,1-26.89,11.83,39.66,39.66,0,0,1-27.66-11.71c-9.12-8.89-14.95-22.2-16-36.52a59.71,59.71,0,0,1,4.79-28.54m-2-16c-19.69,25.2-16.46,66.13,6.2,88.23a49.55,49.55,0,0,0,34.65,14.55c15.56,0,30.76-7.76,40.15-22.8l-81-80Z"/><path class="cls-3" d="M493.47,262.84s-64,29.53-52.82,123.81"/><path class="cls-3" d="M470.42,386.65S451.31,273.47,474.78,191"/></g></svg>