<svg id="Group_5997" data-name="Group 5997" xmlns="http://www.w3.org/2000/svg" width="130.049" height="130.049" viewBox="0 0 130.049 130.049">
  <g id="Group_5863" data-name="Group 5863" transform="translate(20.325 20.325)">
    <path id="Path_10405" data-name="Path 10405" d="M124.72,169.4a44.7,44.7,0,0,1-38.946-66.651,2.54,2.54,0,1,1,4.423,2.5A39.624,39.624,0,1,0,105.25,90.2a2.54,2.54,0,1,1-2.5-4.423,45,45,0,0,1,27.736-5.386A44.284,44.284,0,0,1,156.33,93.109,44.683,44.683,0,0,1,124.72,169.4Z" transform="translate(-80.021 -80.02)" fill="#41823e"/>
  </g>
  <g id="Group_5864" data-name="Group 5864" transform="translate(54.222 78.444)">
    <path id="Path_10406" data-name="Path 10406" d="M224.275,317.329a14.18,14.18,0,0,1-10.058-4.159,2.54,2.54,0,1,1,3.592-3.592,9.154,9.154,0,0,0,12.931,0,2.54,2.54,0,0,1,3.592,3.592,14.181,14.181,0,0,1-10.058,4.159Z" transform="translate(-213.473 -308.833)" fill="#41823e"/>
  </g>
  <g id="Group_5865" data-name="Group 5865" transform="translate(40.116 54.901)">
    <path id="Path_10407" data-name="Path 10407" d="M169.674,223.126a2.531,2.531,0,0,1-1.8-.744,3.969,3.969,0,0,0-5.607,0,2.54,2.54,0,1,1-3.592-3.592,9.055,9.055,0,0,1,12.791,0,2.54,2.54,0,0,1-1.8,4.336Z" transform="translate(-157.935 -216.145)" fill="#41823e"/>
  </g>
  <g id="Group_5866" data-name="Group 5866" transform="translate(75.654 54.901)">
    <path id="Path_10408" data-name="Path 10408" d="M309.586,223.126a2.531,2.531,0,0,1-1.8-.744,3.969,3.969,0,0,0-5.607,0,2.54,2.54,0,1,1-3.592-3.592,9.055,9.055,0,0,1,12.791,0,2.54,2.54,0,0,1-1.8,4.336Z" transform="translate(-297.847 -216.145)" fill="#41823e"/>
  </g>
  <g id="Group_5867" data-name="Group 5867" transform="translate(62.484)">
    <path id="Path_10409" data-name="Path 10409" d="M248.54,15.24A2.54,2.54,0,0,1,246,12.7V2.54a2.54,2.54,0,0,1,5.08,0V12.7A2.54,2.54,0,0,1,248.54,15.24Z" transform="translate(-246)" fill="#41823e"/>
  </g>
  <g id="Group_5868" data-name="Group 5868" transform="translate(100.637 11.059)">
    <path id="Path_10410" data-name="Path 10410" d="M398.747,61.891a2.54,2.54,0,0,1-1.8-4.336l13.273-13.273a2.54,2.54,0,0,1,3.592,3.592L400.544,61.147A2.533,2.533,0,0,1,398.747,61.891Z" transform="translate(-396.207 -43.538)" fill="#41823e"/>
  </g>
  <g id="Group_5869" data-name="Group 5869" transform="translate(11.059 11.059)">
    <path id="Path_10411" data-name="Path 10411" d="M59.352,61.891a2.531,2.531,0,0,1-1.8-.744L44.283,47.874a2.54,2.54,0,1,1,3.592-3.592L61.148,57.555a2.54,2.54,0,0,1-1.8,4.336Z" transform="translate(-43.539 -43.538)" fill="#41823e"/>
  </g>
  <g id="Group_5870" data-name="Group 5870" transform="translate(100.637 100.637)">
    <path id="Path_10412" data-name="Path 10412" d="M412.02,414.559a2.532,2.532,0,0,1-1.8-.744l-13.273-13.273a2.54,2.54,0,1,1,3.592-3.592l13.273,13.273a2.54,2.54,0,0,1-1.8,4.336Z" transform="translate(-396.207 -396.206)" fill="#41823e"/>
  </g>
  <g id="Group_5871" data-name="Group 5871" transform="translate(11.059 100.637)">
    <path id="Path_10413" data-name="Path 10413" d="M46.079,414.559a2.54,2.54,0,0,1-1.8-4.336L57.556,396.95a2.54,2.54,0,1,1,3.592,3.592L47.875,413.815A2.532,2.532,0,0,1,46.079,414.559Z" transform="translate(-43.539 -396.206)" fill="#41823e"/>
  </g>
  <g id="Group_5872" data-name="Group 5872" transform="translate(62.484 114.808)">
    <path id="Path_10414" data-name="Path 10414" d="M248.54,467.24A2.54,2.54,0,0,1,246,464.7V454.54a2.54,2.54,0,0,1,5.08,0V464.7A2.54,2.54,0,0,1,248.54,467.24Z" transform="translate(-246 -452)" fill="#41823e"/>
  </g>
  <g id="Group_5873" data-name="Group 5873" transform="translate(114.808 62.484)">
    <path id="Path_10415" data-name="Path 10415" d="M464.7,251.08H454.54a2.54,2.54,0,0,1,0-5.08H464.7a2.54,2.54,0,1,1,0,5.08Z" transform="translate(-452 -246)" fill="#41823e"/>
  </g>
  <g id="Group_5874" data-name="Group 5874" transform="translate(0 62.484)">
    <path id="Path_10416" data-name="Path 10416" d="M12.7,251.08H2.54a2.54,2.54,0,1,1,0-5.08H12.7a2.54,2.54,0,1,1,0,5.08Z" transform="translate(0 -246)" fill="#41823e"/>
  </g>
  <g id="Group_5875" data-name="Group 5875" transform="translate(32.67 32.67)">
    <path id="Path_10417" data-name="Path 10417" d="M131.16,133.7a2.541,2.541,0,1,1,1.8-.744A2.559,2.559,0,0,1,131.16,133.7Z" transform="translate(-128.62 -128.62)" fill="#41823e"/>
  </g>
</svg>
